# Blender v2.72 (sub 0) OBJ File: 'SSCTTestScene2.blend'
# www.blender.org
mtllib SSCTTestScene2-Windows.mtl
o Cube.001_Windows
v 1.285571 1.951340 -1.515425
v 2.817024 1.951340 -1.515425
v 1.285571 1.951340 -2.992074
v 2.817024 1.951340 -2.992074
v 0.880092 0.848195 5.158069
v 3.222503 0.848195 5.158069
v 0.880092 0.158962 5.158069
v 3.222503 0.158962 5.158069
v -5.146416 -0.254536 5.158070
v -5.146416 0.863564 5.158070
v -3.080062 0.863564 5.158070
v -3.080062 -0.254536 5.158070
vt -0.999907 0.024974
vt 0.752658 0.024974
vt 0.428025 0.024974
vt -0.675272 0.024974
vt 1.026631 -0.049666
vt 0.500001 -0.049666
vt -0.473270 -0.049665
vt -0.999907 -0.049666
vt -0.114233 -0.968338
vt 0.287953 -0.968338
vt 0.675744 -0.968338
vt 1.077927 -0.968338
vn 0.000000 0.000000 -1.000000
vn 0.000000 -1.000000 0.000000
usemtl None
s off
f 5/1/1 6/2/1 8/3/1 7/4/1
f 10/5/1 11/6/1 12/7/1 9/8/1
f 1/9/2 3/10/2 4/11/2 2/12/2
